<svg id="visual" viewBox="0 0 900 600" width="900" height="600" xmlns="http://www.w3.org/2000/svg" xmlns:xlink="http://www.w3.org/1999/xlink" version="1.1"><path d="M0 121L13.7 134C27.3 147 54.7 173 82 194C109.3 215 136.7 231 163.8 221C191 211 218 175 245.2 165C272.3 155 299.7 171 327 186C354.3 201 381.7 215 409 222C436.3 229 463.7 229 491 223C518.3 217 545.7 205 573 206C600.3 207 627.7 221 654.8 212C682 203 709 171 736.2 150C763.3 129 790.7 119 818 135C845.3 151 872.7 193 886.3 214L900 235L900 0L886.3 0C872.7 0 845.3 0 818 0C790.7 0 763.3 0 736.2 0C709 0 682 0 654.8 0C627.7 0 600.3 0 573 0C545.7 0 518.3 0 491 0C463.7 0 436.3 0 409 0C381.7 0 354.3 0 327 0C299.7 0 272.3 0 245.2 0C218 0 191 0 163.8 0C136.7 0 109.3 0 82 0C54.7 0 27.3 0 13.7 0L0 0Z" fill="#004cbb"></path><path d="M0 211L13.7 225C27.3 239 54.7 267 82 280C109.3 293 136.7 291 163.8 277C191 263 218 237 245.2 237C272.3 237 299.7 263 327 280C354.3 297 381.7 305 409 312C436.3 319 463.7 325 491 314C518.3 303 545.7 275 573 276C600.3 277 627.7 307 654.8 299C682 291 709 245 736.2 220C763.3 195 790.7 191 818 209C845.3 227 872.7 267 886.3 287L900 307L900 233L886.3 212C872.7 191 845.3 149 818 133C790.7 117 763.3 127 736.2 148C709 169 682 201 654.8 210C627.7 219 600.3 205 573 204C545.7 203 518.3 215 491 221C463.7 227 436.3 227 409 220C381.7 213 354.3 199 327 184C299.7 169 272.3 153 245.2 163C218 173 191 209 163.8 219C136.7 229 109.3 213 82 192C54.7 171 27.3 145 13.7 132L0 119Z" fill="#0059dd"></path><path d="M0 409L13.7 407C27.3 405 54.7 401 82 397C109.3 393 136.7 389 163.8 403C191 417 218 449 245.2 459C272.3 469 299.7 457 327 451C354.3 445 381.7 445 409 441C436.3 437 463.7 429 491 415C518.3 401 545.7 381 573 384C600.3 387 627.7 413 654.8 425C682 437 709 435 736.2 429C763.3 423 790.7 413 818 410C845.3 407 872.7 411 886.3 413L900 415L900 305L886.3 285C872.7 265 845.3 225 818 207C790.7 189 763.3 193 736.2 218C709 243 682 289 654.8 297C627.7 305 600.3 275 573 274C545.7 273 518.3 301 491 312C463.7 323 436.3 317 409 310C381.7 303 354.3 295 327 278C299.7 261 272.3 235 245.2 235C218 235 191 261 163.8 275C136.7 289 109.3 291 82 278C54.7 265 27.3 237 13.7 223L0 209Z" fill="#0066ff"></path><path d="M0 487L13.7 484C27.3 481 54.7 475 82 467C109.3 459 136.7 449 163.8 458C191 467 218 495 245.2 507C272.3 519 299.7 515 327 510C354.3 505 381.7 499 409 496C436.3 493 463.7 493 491 489C518.3 485 545.7 477 573 479C600.3 481 627.7 493 654.8 501C682 509 709 513 736.2 509C763.3 505 790.7 493 818 489C845.3 485 872.7 489 886.3 491L900 493L900 413L886.3 411C872.7 409 845.3 405 818 408C790.7 411 763.3 421 736.2 427C709 433 682 435 654.8 423C627.7 411 600.3 385 573 382C545.7 379 518.3 399 491 413C463.7 427 436.3 435 409 439C381.7 443 354.3 443 327 449C299.7 455 272.3 467 245.2 457C218 447 191 415 163.8 401C136.7 387 109.3 391 82 395C54.7 399 27.3 403 13.7 405L0 407Z" fill="#3c80ff"></path><path d="M0 601L13.7 601C27.3 601 54.7 601 82 601C109.3 601 136.7 601 163.8 601C191 601 218 601 245.2 601C272.3 601 299.7 601 327 601C354.3 601 381.7 601 409 601C436.3 601 463.7 601 491 601C518.3 601 545.7 601 573 601C600.3 601 627.7 601 654.8 601C682 601 709 601 736.2 601C763.3 601 790.7 601 818 601C845.3 601 872.7 601 886.3 601L900 601L900 491L886.3 489C872.7 487 845.3 483 818 487C790.7 491 763.3 503 736.2 507C709 511 682 507 654.8 499C627.7 491 600.3 479 573 477C545.7 475 518.3 483 491 487C463.7 491 436.3 491 409 494C381.7 497 354.3 503 327 508C299.7 513 272.3 517 245.2 505C218 493 191 465 163.8 456C136.7 447 109.3 457 82 465C54.7 473 27.3 479 13.7 482L0 485Z" fill="#6198ff"></path></svg>