<svg id="visual" viewBox="0 0 1399 798" width="1399" height="798" xmlns="http://www.w3.org/2000/svg" xmlns:xlink="http://www.w3.org/1999/xlink" version="1.1"><path d="M0 49L280 49L560 49L839 49L1119 49L1399 49L1399 0L1119 0L839 0L560 0L280 0L0 0Z" fill="#ffffff"></path><path d="M0 224L280 232L560 248L839 232L1119 248L1399 240L1399 47L1119 47L839 47L560 47L280 47L0 47Z" fill="#fcf7f0"></path><path d="M0 416L280 408L560 424L839 400L1119 424L1399 408L1399 238L1119 246L839 230L560 246L280 230L0 222Z" fill="#f9efe1"></path><path d="M0 504L280 488L560 504L839 488L1119 504L1399 496L1399 406L1119 422L839 398L560 422L280 406L0 414Z" fill="#f6e7d2"></path><path d="M0 568L280 552L560 560L839 544L1119 560L1399 552L1399 494L1119 502L839 486L560 502L280 486L0 502Z" fill="#f2dfc4"></path><path d="M0 623L280 607L560 615L839 600L1119 615L1399 607L1399 550L1119 558L839 542L560 558L280 550L0 566Z" fill="#eed7b5"></path><path d="M0 687L280 679L560 687L839 679L1119 687L1399 687L1399 605L1119 613L839 598L560 613L280 605L0 621Z" fill="#eacfa6"></path><path d="M0 799L280 799L560 799L839 799L1119 799L1399 799L1399 685L1119 685L839 677L560 685L280 677L0 685Z" fill="#e6c798"></path></svg>