<svg id="visual" viewBox="0 0 900 600" width="900" height="600" xmlns="http://www.w3.org/2000/svg" xmlns:xlink="http://www.w3.org/1999/xlink" version="1.1"><path d="M0 199L82 205L164 163L245 265L327 133L409 235L491 91L573 199L655 169L736 109L818 241L900 193L900 0L818 0L736 0L655 0L573 0L491 0L409 0L327 0L245 0L164 0L82 0L0 0Z" fill="#8032f6"></path><path d="M0 241L82 319L164 253L245 313L327 211L409 331L491 199L573 253L655 265L736 151L818 373L900 271L900 191L818 239L736 107L655 167L573 197L491 89L409 233L327 131L245 263L164 161L82 203L0 197Z" fill="#8f71fd"></path><path d="M0 361L82 451L164 397L245 397L327 271L409 439L491 349L573 361L655 415L736 217L818 445L900 379L900 269L818 371L736 149L655 263L573 251L491 197L409 329L327 209L245 311L164 251L82 317L0 239Z" fill="#9d8efc"></path><path d="M0 547L82 517L164 529L245 553L327 505L409 565L491 541L573 529L655 547L736 511L818 553L900 523L900 377L818 443L736 215L655 413L573 359L491 347L409 437L327 269L245 395L164 395L82 449L0 359Z" fill="#8f71fd"></path><path d="M0 601L82 601L164 601L245 601L327 601L409 601L491 601L573 601L655 601L736 601L818 601L900 601L900 521L818 551L736 509L655 545L573 527L491 539L409 563L327 503L245 551L164 527L82 515L0 545Z" fill="#8032f6"></path></svg>