<svg id="visual" viewBox="0 0 900 600" width="900" height="600" xmlns="http://www.w3.org/2000/svg" xmlns:xlink="http://www.w3.org/1999/xlink" version="1.1"><path d="M0 73L13.7 83C27.3 93 54.7 113 82 134C109.3 155 136.7 177 163.8 177C191 177 218 155 245.2 165C272.3 175 299.7 217 327 210C354.3 203 381.7 147 409 132C436.3 117 463.7 143 491 155C518.3 167 545.7 165 573 168C600.3 171 627.7 179 654.8 184C682 189 709 191 736.2 182C763.3 173 790.7 153 818 143C845.3 133 872.7 133 886.3 133L900 133L900 0L886.3 0C872.7 0 845.3 0 818 0C790.7 0 763.3 0 736.2 0C709 0 682 0 654.8 0C627.7 0 600.3 0 573 0C545.7 0 518.3 0 491 0C463.7 0 436.3 0 409 0C381.7 0 354.3 0 327 0C299.7 0 272.3 0 245.2 0C218 0 191 0 163.8 0C136.7 0 109.3 0 82 0C54.7 0 27.3 0 13.7 0L0 0Z" fill="#9e90fa"></path><path d="M0 229L13.7 235C27.3 241 54.7 253 82 269C109.3 285 136.7 305 163.8 310C191 315 218 305 245.2 311C272.3 317 299.7 339 327 333C354.3 327 381.7 293 409 278C436.3 263 463.7 267 491 275C518.3 283 545.7 295 573 310C600.3 325 627.7 343 654.8 340C682 337 709 313 736.2 296C763.3 279 790.7 269 818 265C845.3 261 872.7 263 886.3 264L900 265L900 131L886.3 131C872.7 131 845.3 131 818 141C790.7 151 763.3 171 736.2 180C709 189 682 187 654.8 182C627.7 177 600.3 169 573 166C545.7 163 518.3 165 491 153C463.7 141 436.3 115 409 130C381.7 145 354.3 201 327 208C299.7 215 272.3 173 245.2 163C218 153 191 175 163.8 175C136.7 175 109.3 153 82 132C54.7 111 27.3 91 13.7 81L0 71Z" fill="#8877f6"></path><path d="M0 451L13.7 447C27.3 443 54.7 435 82 436C109.3 437 136.7 447 163.8 453C191 459 218 461 245.2 463C272.3 465 299.7 467 327 473C354.3 479 381.7 489 409 487C436.3 485 463.7 471 491 465C518.3 459 545.7 461 573 467C600.3 473 627.7 483 654.8 482C682 481 709 469 736.2 457C763.3 445 790.7 433 818 432C845.3 431 872.7 441 886.3 446L900 451L900 263L886.3 262C872.7 261 845.3 259 818 263C790.7 267 763.3 277 736.2 294C709 311 682 335 654.8 338C627.7 341 600.3 323 573 308C545.7 293 518.3 281 491 273C463.7 265 436.3 261 409 276C381.7 291 354.3 325 327 331C299.7 337 272.3 315 245.2 309C218 303 191 313 163.8 308C136.7 303 109.3 283 82 267C54.7 251 27.3 239 13.7 233L0 227Z" fill="#715df2"></path><path d="M0 517L13.7 521C27.3 525 54.7 533 82 538C109.3 543 136.7 545 163.8 548C191 551 218 555 245.2 555C272.3 555 299.7 551 327 552C354.3 553 381.7 559 409 561C436.3 563 463.7 561 491 556C518.3 551 545.7 543 573 544C600.3 545 627.7 555 654.8 559C682 563 709 561 736.2 550C763.3 539 790.7 519 818 515C845.3 511 872.7 523 886.3 529L900 535L900 449L886.3 444C872.7 439 845.3 429 818 430C790.7 431 763.3 443 736.2 455C709 467 682 479 654.8 480C627.7 481 600.3 471 573 465C545.7 459 518.3 457 491 463C463.7 469 436.3 483 409 485C381.7 487 354.3 477 327 471C299.7 465 272.3 463 245.2 461C218 459 191 457 163.8 451C136.7 445 109.3 435 82 434C54.7 433 27.3 441 13.7 445L0 449Z" fill="#614dd5"></path><path d="M0 601L13.7 601C27.3 601 54.7 601 82 601C109.3 601 136.7 601 163.8 601C191 601 218 601 245.2 601C272.3 601 299.7 601 327 601C354.3 601 381.7 601 409 601C436.3 601 463.7 601 491 601C518.3 601 545.7 601 573 601C600.3 601 627.7 601 654.8 601C682 601 709 601 736.2 601C763.3 601 790.7 601 818 601C845.3 601 872.7 601 886.3 601L900 601L900 533L886.3 527C872.7 521 845.3 509 818 513C790.7 517 763.3 537 736.2 548C709 559 682 561 654.8 557C627.7 553 600.3 543 573 542C545.7 541 518.3 549 491 554C463.7 559 436.3 561 409 559C381.7 557 354.3 551 327 550C299.7 549 272.3 553 245.2 553C218 553 191 549 163.8 546C136.7 543 109.3 541 82 536C54.7 531 27.3 523 13.7 519L0 515Z" fill="#513eb8"></path></svg>