<svg id="visual" viewBox="0 0 1399 798" width="1399" height="798" xmlns="http://www.w3.org/2000/svg" xmlns:xlink="http://www.w3.org/1999/xlink" version="1.1"><path d="M0 41L155 41L155 49L311 49L311 73L466 73L466 65L622 65L622 65L777 65L777 49L933 49L933 49L1088 49L1088 41L1244 41L1244 73L1399 73L1399 49L1399 0L1399 0L1244 0L1244 0L1088 0L1088 0L933 0L933 0L777 0L777 0L622 0L622 0L466 0L466 0L311 0L311 0L155 0L155 0L0 0Z" fill="#f7cf93"></path><path d="M0 137L155 137L155 121L311 121L311 153L466 153L466 145L622 145L622 137L777 137L777 169L933 169L933 129L1088 129L1088 89L1244 89L1244 153L1399 153L1399 97L1399 47L1399 71L1244 71L1244 39L1088 39L1088 47L933 47L933 47L777 47L777 63L622 63L622 63L466 63L466 71L311 71L311 47L155 47L155 39L0 39Z" fill="#f9d6a2"></path><path d="M0 201L155 201L155 201L311 201L311 216L466 216L466 208L622 208L622 177L777 177L777 216L933 216L933 193L1088 193L1088 153L1244 153L1244 216L1399 216L1399 169L1399 95L1399 151L1244 151L1244 87L1088 87L1088 127L933 127L933 167L777 167L777 135L622 135L622 143L466 143L466 151L311 151L311 119L155 119L155 135L0 135Z" fill="#fbddb1"></path><path d="M0 280L155 280L155 344L311 344L311 304L466 304L466 312L622 312L622 256L777 256L777 360L933 360L933 280L1088 280L1088 312L1244 312L1244 344L1399 344L1399 296L1399 167L1399 214L1244 214L1244 151L1088 151L1088 191L933 191L933 214L777 214L777 175L622 175L622 206L466 206L466 214L311 214L311 199L155 199L155 199L0 199Z" fill="#fce4c0"></path><path d="M0 320L155 320L155 408L311 408L311 376L466 376L466 344L622 344L622 328L777 328L777 408L933 408L933 352L1088 352L1088 352L1244 352L1244 376L1399 376L1399 368L1399 294L1399 342L1244 342L1244 310L1088 310L1088 278L933 278L933 358L777 358L777 254L622 254L622 310L466 310L466 302L311 302L311 342L155 342L155 278L0 278Z" fill="#feead0"></path><path d="M0 384L155 384L155 448L311 448L311 456L466 456L466 432L622 432L622 408L777 408L777 456L933 456L933 400L1088 400L1088 448L1244 448L1244 424L1399 424L1399 464L1399 366L1399 374L1244 374L1244 350L1088 350L1088 350L933 350L933 406L777 406L777 326L622 326L622 342L466 342L466 374L311 374L311 406L155 406L155 318L0 318Z" fill="#fef1df"></path><path d="M0 536L155 536L155 663L311 663L311 687L466 687L466 639L622 639L622 536L777 536L777 695L933 695L933 663L1088 663L1088 695L1244 695L1244 663L1399 663L1399 584L1399 462L1399 422L1244 422L1244 446L1088 446L1088 398L933 398L933 454L777 454L777 406L622 406L622 430L466 430L466 454L311 454L311 446L155 446L155 382L0 382Z" fill="#fff8ef"></path><path d="M0 799L155 799L155 799L311 799L311 799L466 799L466 799L622 799L622 799L777 799L777 799L933 799L933 799L1088 799L1088 799L1244 799L1244 799L1399 799L1399 799L1399 582L1399 661L1244 661L1244 693L1088 693L1088 661L933 661L933 693L777 693L777 534L622 534L622 637L466 637L466 685L311 685L311 661L155 661L155 534L0 534Z" fill="#ffffff"></path></svg>