<svg id="Layer_1" data-name="Layer 1" xmlns="http://www.w3.org/2000/svg" viewBox="0 0 318.6 479.3"><defs><style>.cls-1{fill:#c8b299;}.cls-2{fill:#333;}</style></defs><path class="cls-1" d="M236,310.9a9.21,9.21,0,0,0-3.78,2.29c-1.64,1.93-1.48,4.86-.54,7.22s2.5,4.42,3.52,6.74c2.19,5,1.67,10.67,1.1,16.07-2.7,25.87-5.48,51.76-9.84,77.41-1.72,10.12-3.68,20.25-4.23,30.5a17.82,17.82,0,0,0,.55,6.64A18.45,18.45,0,0,0,225,462a164.8,164.8,0,0,0,20.8,25.29l13.08-12.36c3.68-3.47,7.48-7.13,9.19-11.89,1.65-4.6,1.14-9.66.6-14.52l-9.28-84.57c-1.86-17-3.6-34.83,3.21-50.48.15-.34-10.78-6-12.32-6.27C245.73,306.45,240.1,309.27,236,310.9Z" transform="translate(-90.7 -10.35)"/><path class="cls-2" d="M199.31,162c2.59.35,4.72-2.3,6.91-3.72a12.7,12.7,0,0,0-1.52,4,14.61,14.61,0,0,0-.16,1.61,16.43,16.43,0,0,0,1.27,9.64c1.22,2.58,3.55,5.17,6.66,5.15s5.21-2.43,6-5.2a37.31,37.31,0,0,0,.88-10.49,22.71,22.71,0,0,0-.57-5.47,10.33,10.33,0,0,1,4.24,3.17c2.09,2.72,6.59.39,4.75-2.78-3.89-6.7-14.24-8.65-21.13-6-3,1.13-7.34,3.9-8.11,7.31C198.34,160,198.05,161.85,199.31,162Z" transform="translate(-90.7 -10.35)"/><path class="cls-2" d="M307.39,151.91c-6.89-2.62-17.24-.67-21.13,6-1.84,3.17,2.67,5.5,4.76,2.78a10.23,10.23,0,0,1,4.23-3.17,22.7,22.7,0,0,0-.56,5.47,36.94,36.94,0,0,0,.87,10.49c.77,2.77,2.92,5.18,6,5.2s5.43-2.57,6.65-5.15a16.43,16.43,0,0,0,1.28-9.64c0-.58-.09-1.13-.17-1.61a12.47,12.47,0,0,0-1.52-4c2.2,1.42,4.33,4.07,6.92,3.72,1.26-.17,1-2,.79-2.8C314.73,155.81,310.36,153,307.39,151.91Z" transform="translate(-90.7 -10.35)"/><path class="cls-2" d="M266.26,209.66c-4.68,3.71-10.46,6.78-16.63,6.25-5.76-.49-8.7-4.4-13.37-7-.84-.47-2.28.1-2.13,1.22.85,6.37,7.58,10.2,13.51,11.11,8.35,1.27,16.22-2.44,22.5-7.67C272.89,211.27,269,207.5,266.26,209.66Z" transform="translate(-90.7 -10.35)"/><path class="cls-2" d="M255,194.65c2-2.52,1.74-5.16,1.79-8.3s.25-6.51-.76-9.56a2.62,2.62,0,0,0-5,0c-1.08,2.8-1.08,6-1.23,8.93s-.86,5.89.84,8.37C251.51,195.41,253.75,196.14,255,194.65Z" transform="translate(-90.7 -10.35)"/><path class="cls-2" d="M199.11,132.23c8.09.23,16.12-.36,24.21.09,6,.33,7.56-9.71,1.45-10.69a92,92,0,0,0-14.36-1c-4.14,0-8.8-.29-12.7,1.25C192.38,124,192.82,132.06,199.11,132.23Z" transform="translate(-90.7 -10.35)"/><path class="cls-2" d="M286.59,133.48c8.08.23,16.11-.36,24.21.09,6,.33,7.55-9.71,1.44-10.69a90.75,90.75,0,0,0-14.36-1c-4.13,0-8.79-.29-12.7,1.25C279.86,125.22,280.29,133.3,286.59,133.48Z" transform="translate(-90.7 -10.35)"/><path class="cls-2" d="M400.51,398.25a445.72,445.72,0,0,0-16.59-62.19c-3.07-8.78-5.87-18.49-11.8-25.86-4.86-6.06-11.66-10.06-18.73-13-19.52-8.27-40.51-13.73-60.66-20.34-.55-.16-1.17-.35-1.85-.52a3.38,3.38,0,0,0-2.28-.57c-4.44-1.06-9.77-2.31-12.08-4.89-2.47-2.77-1.57-11.47-1.82-15.28-.16-2.61-.32-5.28-.49-7.91,2.29-.79,4.52-1.66,6.72-2.61,19.77-8.43,38.06-22.54,45.7-43.24,16.89-.81,37.12-14.52,33.86-33.44a21,21,0,0,0-15-16.91,25.14,25.14,0,0,0-8.76-.6C343,142.3,351.51,135,357.9,126.72c8-10.38,15.86-21.94,18.11-35.12,1.85-10.66.14-22.3-7.09-30.7-5.82-6.75-16.73-12-25.48-8.38-2.15-15.66-18.49-28.19-31.92-34-18-7.72-40-9.68-59.3-7.2A63.26,63.26,0,0,0,226.63,20c-7.94,5-15.77,13.43-25.64,14.16-8.67.63-16.15-4.24-24,1.93a17.65,17.65,0,0,0-6.49,11.5c-7-2.39-17.35.25-21.13,5-5.9,7.34-.73,15.09,6.2,20-4.62,1.6-8.4,4.81-9.27,10.22-1.66,10.36,8.89,16.15,17,19.25a72.65,72.65,0,0,0,16.12,4c-.19,1.9,0,3.94,0,5.65-.16,7.42.19,14.85.38,22.24.11,4.14.19,8.27.3,12.43A17.6,17.6,0,0,0,169.34,143c-8.65.3-15.47,7.4-18,15.28-6.63,20.67,12.54,37.2,31.41,39.07a47.59,47.59,0,0,0,6.39,16.48c6.17,9.65,15.41,16.78,24.36,23.68a92.77,92.77,0,0,0,12.45,8.32c-.21,3.27-.4,6.5-.6,9.74-.27,3.81.66,12.51-1.82,15.28-3.12,3.48-11.77,4.54-16.23,6-20.12,6.61-41.11,12.07-60.63,20.34-7.07,3-13.87,7-18.74,13-6,7.37-8.73,17.08-11.83,25.86a455.59,455.59,0,0,0-16.58,62.19,508.92,508.92,0,0,0-8.78,70.88c-.3,6,9,5.95,9.32,0a517.07,517.07,0,0,1,23.06-126.27c2.56-8.16,4.57-18,9.38-25.51,3.37,5.39,4.21,11.94,4,18.28-.08,2.91,4.44,3.56,5.12.68a25.51,25.51,0,0,0-6.5-22.46.64.64,0,0,1,.13-.17c6.18-6.88,15.45-10.14,24-13.05,17.7-6,35.45-11.8,53.18-17.7-2.5,15.23-2.53,30.35-1.09,45.82.22,2.2,2.89,3.72,4.63,1.9a84.4,84.4,0,0,1,14-11.91,45.14,45.14,0,0,0,3.75,13.13,4.36,4.36,0,0,0,.43.74c-2.44,29-6.82,57.67-10.79,86.46-.9,6.58-1.77,13.19-2.53,19.82-.68,5.93-2.31,12.87-1.44,18.82.82,5.66,5.49,10.25,9,14.52,4.63,5.71,9.52,11.17,14.6,16.5a3.16,3.16,0,0,0,3.78.49c8.95-6.79,18.17-15.25,23.74-25.17,2.69-4.87,1-10.39.46-15.64-.87-7.8-1.74-15.63-2.55-23.44q-4.65-45.39-8.11-90.87c1.36-1.82,1.53-4.67,2-6.71.62-2.88,1.28-5.77,1.87-8.68.22.19.44.36.63.55a167.92,167.92,0,0,1,13.92,14.19,3.19,3.19,0,0,0,5.28-1.39,235,235,0,0,0,7.88-47.71c16.34,5.41,32.68,10.76,49,16.28,6.8,2.31,14,4.84,19.82,9.25-7.31,7.09-12.78,18.6-13.27,28-.13,2.75,3.62,3.46,4.95,1.34,3.13-4.9,4.22-11,6.88-16.24a75.84,75.84,0,0,1,5.82-9.05c6.72,7.67,9,19.44,11.91,28.93A518.05,518.05,0,0,1,400,469.13c.33,5.95,9.63,6,9.3,0A508.92,508.92,0,0,0,400.51,398.25ZM342.13,157.34A14.57,14.57,0,0,1,353.88,171c.71,12.89-13.16,22-25,23.55,3-11.66,3.78-24.25,4.46-36.22C336.15,157.75,339,156.69,342.13,157.34Zm-185,8.1c-.08-6.25,3-12.69,8.81-15.39s10.36.17,14.35,3.92c.19,8.4.38,16.8.66,25.2.1,3.54.29,7.07.68,10.61C169.26,187.69,157.29,179.07,157.08,165.44Zm2.72-74c-3.73-2.15-8.35-6.47-4.68-11,1.93-2.36,5.19-3.2,8.27-3.88.62.21,1.22.38,1.82.54,4.84,1.22,6.88-6.14,2.06-7.5-3.86-1.09-6.9-3.43-9.78-6.12-1-.95-3-2.56-3.29-4-.68-3.21,3-4.81,5.27-5.46a21.33,21.33,0,0,1,10.41-.22,5.51,5.51,0,0,1,1.28.49s0,.13.06.19a3.49,3.49,0,0,0,6.71-1.88c-.79-3.8,0-7.75,3-10.47,3.83-3.42,8.59-2.17,13.21-1.41a29.14,29.14,0,0,0,18.82-3c6.44-3.34,11.83-8.35,18-12.13,7.66-4.67,16.42-6.9,25.31-7.69,16.61-1.47,34.94.05,50.66,5.85a58.78,58.78,0,0,1,21.75,13.73c5.68,5.76,8.78,12.64,12.53,19.63a1.27,1.27,0,0,0,2.1.16,2.27,2.27,0,0,0,.84.25c5.38.46,10,.43,14.79,3.45a23.35,23.35,0,0,1,9.41,12.18c3.64,10.47,1,21.89-3.92,31.46s-11.74,18.46-18.87,26.59c-3.75,4.27-7.88,8.21-11.55,12.54.49-13.19.49-26.38.49-39.59,0-3.59-4.41-4.33-6.26-2.23-15.33,4.29-30.94,7-46.93,6.71a141.86,141.86,0,0,1-24.25-2.5c-7.42-1.47-17.92-2.66-17.81-12.18a3,3,0,0,0-2.66-3.13,4,4,0,0,0-2.83-.13c-15.91,4.76-32.44,8.32-49.13,7.07C176.57,97.17,167,95.51,159.8,91.43Zm27.27,51.07c-.19-7-.41-14-.6-20.94-.11-3.32-.19-6.61-.44-9.9a46.38,46.38,0,0,0-.54-5.08c15.53,1,31.49-2.15,46.31-6.34a16.64,16.64,0,0,0,8.07,10.06c8.21,4.52,19,5.55,28.14,6.58,19.82,2.26,40.68.27,59.49-6.63,0,13.84-.1,27.7-.76,41.52a17.48,17.48,0,0,0-2.61-6.94c-4.32-6.39-13.29-8-20.42-8.78a72.66,72.66,0,0,0-12.86-.19c-5.76-.19-13.67-.16-18.62,3.35-3,2.14-4.08,5.95-4.46,9.46-.46,4.21-.68,8.53-.76,12.86-6.5-2.15-16.32-2.67-22.24.51.24-5.87.16-12.48-3-17.21-4.33-6.39-13.33-8-20.42-8.78a73,73,0,0,0-12.89-.19c-5.77-.19-13.68-.16-18.6,3.35A9.23,9.23,0,0,0,187.07,142.5ZM323,170c0,.54-.08,1.09-.13,1.6-.36,4.41-.6,10.12-3.43,13.79s-7.86,4.13-12,4.48a103.05,103.05,0,0,1-16.94-.16c-4.81-.38-10-.35-13.84-3.75a14.41,14.41,0,0,1-4.21-7.8c-1.22-5.5-1.14-11.72-1.33-17.35-.3-7.26-1.44-17.4,7.8-19,10.71-1.88,24-3.4,34.42.43C324.79,146.46,323.83,159.73,323,170ZM196.45,141.82c10.71-1.88,24-3.4,34.45.43,11.5,4.21,10.55,17.48,9.68,27.79-.06.54-.11,1.09-.14,1.6-.38,4.41-.62,10.12-3.45,13.79s-7.83,4.13-12,4.48a102.68,102.68,0,0,1-16.91-.16c-4.84-.38-10-.35-13.87-3.75a14.47,14.47,0,0,1-4.21-7.8c-1.2-5.5-1.12-11.72-1.34-17.35C188.37,153.59,187.23,143.45,196.45,141.82ZM224.94,237c-8.78-5.77-17.7-12.73-24.77-20.56s-10.3-17.24-11.44-27.46a10.81,10.81,0,0,0,4.62,2.94c8,2.74,18.33,2.63,26.7,2.39,6.72-.19,15.88-.19,20.31-6.2,4.22-5.76,4-15.28,4.24-22a1.46,1.46,0,0,1,0-.36c3.45-1.38,9-1.06,12.56-.92,3.32.13,6.53.92,9.82,1.25,0,4,.24,8.05.57,12,.51,6.09,1.79,11.69,8.15,13.87,8,2.74,18.36,2.63,26.73,2.39,6.72-.19,15.88-.19,20.29-6.2a8.26,8.26,0,0,0,.65-1c-1.5,8.84-3.94,17.3-9.27,24.86-6.07,8.59-14.58,15.36-23.6,20.61C270.32,244.32,245.74,250.66,224.94,237Zm43.67,35.26c-6.09,9.6-12.29,18.76-19.74,27.28q-5.18-7.76-10.39-15.53c-2.12-3.18-4.35-7.72-7.45-10.6,1.5-3.89.93-9.17,1.17-13.08.19-3.73.47-7.51.71-11.29A46.55,46.55,0,0,0,245.34,252a63.54,63.54,0,0,0,21.8-2.15c.22,3.54.49,7,.68,10.5S267.61,268.55,268.61,272.27ZM215.89,322c-1.25-13.68,0-27.63,2.53-41.06l3.78-1.28a37.52,37.52,0,0,0,4.51-1.68c4.95,9.49,11.56,18.4,17.48,27.24A54.84,54.84,0,0,0,215.89,322Zm18.22-5.85a88.7,88.7,0,0,1,15.85-7.2c2.94,1.9,5.93,3.72,8.81,5.71-.93,3.64-1.5,7.5-2.69,11-1.12,3.32-1,3.49-4.44,3.92a32.43,32.43,0,0,1-5.38-.22c-4.95-.24-7.1-.49-9-5.44C236.17,321.32,235.19,318.71,234.11,316.13Zm27.19,98.95q2,19.77,4.18,39.5c.77,7.07-3.8,11.72-8.34,16.83a96.61,96.61,0,0,1-11.67,10.93c-3.86-4.16-7.64-8.37-11.25-12.75-2.23-2.72-4.57-5.41-6.56-8.32-2.31-3.45-2.14-6.55-1.79-10.49,1.28-14,3.23-27.95,5.27-41.88,3.54-24.33,7.56-48.75,8.11-73.38a61.85,61.85,0,0,0,7,.35c2.09.11,5.11.63,7.91.57Q257.32,375.8,261.3,415.08Zm18.05-90.33c-7.23-8.08-15.77-16.86-26.18-19.49a148.26,148.26,0,0,0,20-27.33,37,37,0,0,0,4.62,1.71c2.53.87,5.06,1.71,7.58,2.56A213.45,213.45,0,0,1,279.35,324.75Z" transform="translate(-90.7 -10.35)"/><path class="cls-2" d="M364.48,104.62c-4.92,9.65-11.74,18.46-18.87,26.59-3.75,4.27-7.88,8.21-11.55,12.54.49-13.19.49-26.38.49-39.59,0-3.59-4.41-4.33-6.26-2.23-15.33,4.29-30.94,7-46.93,6.71a141.86,141.86,0,0,1-24.25-2.5c-7.42-1.47-17.92-2.66-17.81-12.18a3,3,0,0,0-2.66-3.13,4,4,0,0,0-2.83-.13c-15.91,4.76-32.44,8.32-49.13,7.07-8.11-.6-17.73-2.26-24.88-6.34-3.73-2.15-8.35-6.47-4.68-11,1.93-2.36,5.19-3.2,8.27-3.88.62.21,1.22.38,1.82.54,4.84,1.22,6.88-6.14,2.06-7.5-3.86-1.09-6.9-3.43-9.78-6.12-1-.95-3-2.56-3.29-4-.68-3.21,3-4.81,5.27-5.46a21.33,21.33,0,0,1,10.41-.22,5.51,5.51,0,0,1,1.28.49s0,.13.06.19a3.49,3.49,0,0,0,6.71-1.88c-.79-3.8,0-7.75,3-10.47,3.83-3.42,8.59-2.17,13.21-1.41a29.14,29.14,0,0,0,18.82-3c6.44-3.34,11.83-8.35,18-12.13,7.66-4.67,16.42-6.9,25.31-7.69,16.61-1.47,34.94.05,50.66,5.85a58.78,58.78,0,0,1,21.75,13.73c5.68,5.76,8.78,12.64,12.53,19.63a1.27,1.27,0,0,0,2.1.16,2.27,2.27,0,0,0,.84.25c5.38.46,10,.43,14.79,3.45a23.35,23.35,0,0,1,9.41,12.18C372,83.63,369.38,95.05,364.48,104.62Z" transform="translate(-90.7 -10.35)"/><path class="cls-2" d="M206.44,384.06c-9.89-1.08-19.8-1.77-29.71-1.89-7-.31-14-.35-21-.26a2.4,2.4,0,0,0-2.33,2.34q-.61,6.36-.94,12.72a.47.47,0,0,0,0,.4,218.73,218.73,0,0,0,.23,27.69c.33,4.41.35,9.13,5.48,10.31,6.3,1.46,13.79.91,20.21.78a182.88,182.88,0,0,0,20.9-1.6c4.71-.63,7.09-1.15,7.73-6.17,1.74-13.8,2-27.94,1.93-41.84A2.54,2.54,0,0,0,206.44,384.06ZM204,388.77q0,4.22,0,8.43l-25.51-.91c-4.41-.16-8.82-.27-13.24-.4a77.13,77.13,0,0,0-7.92-.16c.13-3,.32-6,.58-8.94A441,441,0,0,1,204,388.77Zm-1.47,36.83c-.89,3.88-3.36,4-7,4.39q-8.06.9-16.16,1.11c-5.08.13-10.17,0-15.25-.24-2.52-.14-3.47.24-5-2.1a7.27,7.27,0,0,1-1.41-4.62c-.18-2.47-.31-4.95-.41-7.42-.23-6-.27-11.9-.08-17.85,2.34.35,4.78.33,7.1.45q6.62.35,13.24.64,13.19.59,26.38,1.12c-.14,5.7-.38,11.4-.78,17.1A49.5,49.5,0,0,1,202.49,425.6Z" transform="translate(-90.7 -10.35)"/><path class="cls-2" d="M136.77,343.85c-2,9.66-1.33,20-1.93,29.86-.68,11-1.51,22-2.37,33-1.69,21.56-3.31,43.11-2.92,64.75.07,3.94,6.17,4,6.14,0-.11-21.63,1.41-43.2,3-64.75.79-10.58,1.63-21.16,2.13-31.75.47-10.12,1.84-21.11-.31-31.08A2,2,0,0,0,136.77,343.85Z" transform="translate(-90.7 -10.35)"/><path class="cls-2" d="M347.15,346c-5.42,7-5,20.21-5.64,28.82-.74,10.7-1,21.43-1.16,32.15-.4,22.07-1,44.16-1,66.24,0,4.21,6.43,4.2,6.53,0,.54-21.68.61-43.37.84-65.05.12-10.32.22-20.65.78-31,.3-5.54.75-11.07,1.24-16.59.42-4.78,1.66-9.71.24-14.37A1,1,0,0,0,347.15,346Z" transform="translate(-90.7 -10.35)"/></svg>