<svg width="35" height="35" viewBox="0 0 35 35" fill="none" xmlns="http://www.w3.org/2000/svg">
<path d="M17.5315 0.131226C7.88568 0.131226 0.0639038 8.08491 0.0639038 17.897C0.0639038 25.7466 5.0689 32.4061 12.0093 34.7553C12.8823 34.9197 13.2028 34.3699 13.2028 33.9006C13.2028 33.477 13.1866 32.0775 13.1791 30.5929C8.31957 31.6676 7.29415 28.4968 7.29415 28.4968C6.49957 26.4432 5.35469 25.8972 5.35469 25.8972C3.76985 24.7945 5.47415 24.8172 5.47415 24.8172C7.2282 24.9422 8.1518 26.648 8.1518 26.648C9.70973 29.3641 12.2381 28.5788 13.2349 28.1249C13.3917 26.9769 13.8444 26.1926 14.3439 25.7492C10.4641 25.3 6.3856 23.7766 6.3856 16.9691C6.3856 15.0295 7.06795 13.4446 8.18535 12.2005C8.00399 11.7527 7.40609 9.94601 8.35456 7.49886C8.35456 7.49886 9.82138 7.02137 13.1594 9.31995C14.5527 8.92632 16.047 8.72891 17.5315 8.72214C19.016 8.72891 20.5114 8.92632 21.9074 9.31995C25.2413 7.02137 26.7061 7.49886 26.7061 7.49886C27.6569 9.94601 27.0587 11.7527 26.8774 12.2005C27.9974 13.4446 28.6751 15.0295 28.6751 16.9691C28.6751 23.7928 24.5888 25.2953 20.6992 25.7351C21.3257 26.2864 21.8839 27.3676 21.8839 29.0251C21.8839 31.402 21.8637 33.3151 21.8637 33.9006C21.8637 34.3734 22.1781 34.9274 23.0635 34.7529C30.0002 32.4011 34.9988 25.7439 34.9988 17.897C34.9988 8.08491 27.1782 0.131226 17.5315 0.131226Z" fill="#F6F6F6"/>
<path d="M6.67978 25.6392C6.64131 25.7277 6.50478 25.7539 6.3804 25.6933C6.25371 25.6354 6.18255 25.515 6.22362 25.4265C6.26123 25.3356 6.39804 25.3106 6.52445 25.3709C6.65143 25.4291 6.72375 25.5506 6.67978 25.6392Z" fill="#F6F6F6"/>
<path d="M7.38729 26.4418C7.30398 26.5203 7.14113 26.4838 7.03064 26.3597C6.91638 26.2358 6.89497 26.0702 6.97944 25.9905C7.06535 25.9119 7.22328 25.9487 7.33783 26.0726C7.45208 26.1979 7.47435 26.3623 7.38729 26.4418Z" fill="#F6F6F6"/>
<path d="M8.07602 27.465C7.969 27.5406 7.794 27.4697 7.68582 27.3117C7.57879 27.1537 7.57879 26.9643 7.68813 26.8884C7.7966 26.8125 7.969 26.8807 8.07863 27.0375C8.18536 27.1979 8.18536 27.3876 8.07602 27.465Z" fill="#F6F6F6"/>
<path d="M9.01954 28.4535C8.92379 28.5609 8.71987 28.532 8.57061 28.3855C8.41788 28.2423 8.37536 28.039 8.4714 27.9316C8.5683 27.8239 8.77338 27.8542 8.92379 27.9995C9.07536 28.1425 9.12164 28.3473 9.01954 28.4535Z" fill="#F6F6F6"/>
<path d="M10.3212 29.0275C10.279 29.1667 10.0826 29.2299 9.88476 29.1708C9.68719 29.1099 9.5579 28.9469 9.59781 28.8063C9.63889 28.6662 9.83616 28.6003 10.0355 28.6636C10.2327 28.7242 10.3623 28.886 10.3212 29.0275Z" fill="#F6F6F6"/>
<path d="M11.7507 29.134C11.7557 29.2805 11.5879 29.402 11.3802 29.4044C11.1714 29.4094 11.0024 29.2908 11.0001 29.1466C11.0001 28.9987 11.1641 28.8783 11.373 28.8748C11.5807 28.8707 11.7507 28.9884 11.7507 29.134Z" fill="#F6F6F6"/>
<path d="M13.081 28.9036C13.1059 29.0466 12.9615 29.1934 12.7553 29.2323C12.5525 29.2702 12.3648 29.1819 12.339 29.0401C12.3139 28.8936 12.4608 28.7468 12.6633 28.7089C12.8698 28.6724 13.0547 28.7583 13.081 28.9036Z" fill="#F6F6F6"/>
</svg>
