<svg width="30" height="24" viewBox="0 0 40 24" fill="none" xmlns="http://www.w3.org/2000/svg">
<path d="M20 0C14.6665 0 11.3333 2.666 9.99975 7.99749C12 5.33149 14.3334 4.33212 16.9999 4.99837C18.5214 5.37851 19.6089 6.48242 20.8128 7.70388C22.7735 9.69362 25.0429 11.9965 30.0003 11.9965C35.3333 11.9965 38.667 9.33048 40 3.99849C38.0003 6.66449 35.6669 7.66436 32.9999 6.99811C31.4788 6.61797 30.3914 5.51406 29.1874 4.2926C27.2267 2.30286 24.9569 0 20 0ZM9.99975 11.9965C4.66675 11.9965 1.333 14.6625 0 19.9945C1.99975 17.3285 4.33313 16.3286 7.00013 16.9953C8.5212 17.376 9.6086 18.4794 10.8126 19.7004C12.7733 21.6901 15.0431 23.9935 20 23.9935C25.3335 23.9935 28.6667 21.3275 30.0003 15.9955C28 18.6615 25.6666 19.6613 23.0001 18.9946C21.4786 18.615 20.3911 17.5105 19.1872 16.2896C17.2265 14.2998 14.9571 11.9965 9.99975 11.9965Z" fill="#06B6D4"/>
</svg>
