<svg width="40" height="40" viewBox="0 0 40 40" fill="none" xmlns="http://www.w3.org/2000/svg">
<path d="M19.9227 23.5265C21.8703 23.5265 23.4492 21.9476 23.4492 20C23.4492 18.0524 21.8703 16.4735 19.9227 16.4735C17.975 16.4735 16.3962 18.0524 16.3962 20C16.3962 21.9476 17.975 23.5265 19.9227 23.5265Z" fill="#61DAFB"/>
<path d="M19.9227 27.225C30.3733 27.225 38.8453 23.9903 38.8453 20C38.8453 16.0098 30.3733 12.775 19.9227 12.775C9.47197 12.775 1.00002 16.0098 1.00002 20C1.00002 23.9903 9.47197 27.225 19.9227 27.225Z" stroke="#61DAFB" stroke-width="2"/>
<path d="M13.6656 23.6125C18.8909 32.6631 25.9283 38.3826 29.384 36.3875C32.8396 34.3924 31.405 25.4381 26.1797 16.3875C20.9543 7.33693 13.917 1.61737 10.4613 3.61251C7.00564 5.60764 8.44025 14.5619 13.6656 23.6125Z" stroke="#61DAFB" stroke-width="2"/>
<path d="M13.6656 16.3875C8.44027 25.4381 7.00567 34.3924 10.4613 36.3875C13.917 38.3826 20.9544 32.6631 26.1797 23.6125C31.405 14.562 32.8396 5.60766 29.384 3.61253C25.9283 1.6174 18.891 7.33696 13.6656 16.3875Z" stroke="#61DAFB" stroke-width="2"/>
</svg>
