<svg width="36" height="40" viewBox="0 0 36 40" fill="none" xmlns="http://www.w3.org/2000/svg">
<path d="M35.27 0L32.0568 35.9958L17.6134 40L3.20978 36.0015L0 0H35.27Z" fill="#264DE4"/>
<path d="M29.3059 33.7037L32.0518 2.94366H17.635V36.9394L29.3059 33.7037Z" fill="#2965F1"/>
<path d="M7.35837 16.2961L7.75411 20.7115H17.635V16.2961H7.35837Z" fill="#EBEBEB"/>
<path d="M17.635 7.35907H17.6197H6.56317L6.96455 11.7745H17.635V7.35907Z" fill="#EBEBEB"/>
<path d="M17.635 32.3572V27.7633L17.6156 27.7685L12.6981 26.4406L12.3838 22.9191H9.99427H7.95139L8.56999 29.852L17.6147 32.3629L17.635 32.3572Z" fill="#EBEBEB"/>
<path d="M23.0568 20.7114L22.5443 26.4379L17.6197 27.7671V32.3608L26.6716 29.852L26.738 29.1061L27.7756 17.4817L27.8833 16.296L28.6804 7.35907H17.6197V11.7745H23.8415L23.4397 16.296H17.6197V20.7114H23.0568Z" fill="white"/>
</svg>
